<svg width="270" height="25" xmlns="http://www.w3.org/2000/svg" viewBox="0 0 270 25"><style>.st0{fill-rule:evenodd;clip-rule:evenodd}.st0,.st1{fill:#fff}</style><g id="Layer_2"><g id="Layer_1-2"><path class="st0" d="M0 .7h23.6v3.9h-21L0 .7m4.2 6.4h19.4V11H6.8L4.2 7.1zm4.2 6.4h15.2v3.9H11l-2.6-3.9zM270 .7h-23.6v3.9h21L270 .7m-4.2 6.4h-19.4V11h16.8l2.6-3.9zm-4.2 6.4h-15.2v3.9h12.7l2.5-3.9zM28.2.6h4.1v9.6h19.3V.6h4.1v23.7h-4.1V13.8H32.3v10.5h-4.1V.6m46.4 0h5l12.7 23.7H88L85.1 19H69l-2.8 5.3h-4.3L74.6.6m8.6 14.8L77.1 3.9 71 15.4h12.2zM98.5.6h5L121.8 20V.6h4.1v23.7H121L102.6 4.9v19.4h-4.1V.6m79.4 0h5l12.7 23.7h-4.3l-2.8-5.3h-16.1l-2.8 5.3h-4.3L177.9.6m8.6 14.8l-6.1-11.5-6.1 11.5h12.2z"/><path class="st1" d="M201.9.6h4.1v23.7h-4.1z"/><path class="st0" d="M236.3 15.1l6.6 9.2h-4.7l-6.6-9.1h-12.1v9.1h-4.1V.6h20.2c3.9 0 7 3.1 7 6.9v.7c.1 3.6-2.7 6.6-6.3 6.9m-16.7-11v7.6h15.2c2 0 3.7-1.6 3.8-3.6v-.4c0-2-1.6-3.6-3.6-3.6h-15.4z"/><path class="st1" d="M156.8 6.3c-3.2-2-7.8-2.9-11.6-2.8-2.1.1-7.1.2-7 3.2 0 .9.5 1.8 1.8 2.2 1.8.6 4 .9 7.4 1 4.4.2 7.9.9 10 1.9 2.5 1.2 3.4 3 3.3 5.6-.1 3-1.9 4.6-4.1 5.8-2.3 1.3-5.3 1.8-8.5 1.9-5.3.1-10.8-.9-14.9-4.1l2.2-2.9c3.8 2.4 8.2 3.6 12.7 3.5 2.6 0 5-.5 6.7-1.4 1.5-.8 2.1-2.6 1.3-4.1-.3-.6-.8-1-1.4-1.3-2.1-1-5.4-1.1-7.3-1.2-3.6-.2-6.8-.4-9-1.1-2.9-.9-4.3-2.1-4.3-5.2 0-2.3 1.3-4.1 3.3-5.3 1.9-1.1 4.5-1.7 7.9-1.8 4.5-.1 9.6.5 14 3.5l-2.5 2.6"/></g></g></svg>